<svg id="Layer_1" enable-background="new 0 0 512 512" height="512" viewBox="0 0 512 512" width="512" xmlns="http://www.w3.org/2000/svg"><path d="m508.581 339.577c-8.942-20.654-25.179-36.242-46.956-45.078-17.623-7.15-37.742-9.301-57.271-6.236l-7.802-16.675v-23.287c4.188 1.54 8.641 2.354 13.183 2.354h26.508c9.384 0 17.018-7.629 17.018-17.009v-42.745c0-9.379-7.634-17.009-17.018-17.009h-26.508c-4.542 0-8.995.814-13.183 2.353v-25.905c0-4.154-.925-7.961-2.749-11.323-3.127-6.864-9.274-11.759-16.463-13.384l-11.53-26.252c3.881-3.005 6.393-7.689 6.393-12.959v-12.885c0-8.09-6.063-14.636-15.067-16.286l-37.816-7.039c-.007-.001-.014-.002-.021-.004-4.146-.76-8.291.372-11.668 3.188-3.83 3.192-6.116 8.1-6.116 13.13v19.897c0 9.05 7.367 16.412 16.422 16.412h32.88l9.737 22.17-38.152-.131c-.042-.001-.083-.001-.125-.001-14.139 0-21.865 10.417-22.189 20.738-.336 10.713 6.97 22.006 21.585 22.861l30.273 1.77v24.283c-6.005-4.259-13.688-7.741-22.863-10.254-37.246-10.201-89.449-3.072-108.97 22.857h-59.091c-4.174 0-7.558 3.383-7.558 7.557s3.384 7.557 7.558 7.557h55.515v39.295h-86.739-35.855-60.033c-10.034 0-16.024-4.889-16.024-13.077v-31.647c0-3.853.957-6.708 2.845-8.486 2.211-2.082 6.081-3.111 10.622-2.845.162.01.33.018.486.014l13.571-.057c2.918.014 5.525 2.367 9.539 6.204 4.723 4.517 10.6 10.137 19.46 10.589.128.007.257.01.386.01h53.3c4.174 0 7.558-3.383 7.558-7.557s-3.384-7.557-7.558-7.557h-53.07c-2.966-.226-5.632-2.584-9.631-6.408-4.823-4.612-10.826-10.353-19.981-10.395l-13.408.056c-8.703-.472-16.379 1.993-21.637 6.942-3.467 3.264-7.599 9.295-7.599 19.49v31.647c0 16.598 12.805 28.191 31.139 28.191h50.713l-2.154 10.197c-34.399.605-71.571 17.266-80.404 49.961-3.288 12.208-2.654 20.898 1.938 26.568 1.164 1.438 2.86 2.985 5.243 4.135-1.012 5.083-1.531 10.273-1.531 15.512 0 43.559 35.47 78.997 79.069 78.997 37.167 0 69.234-26.158 77.17-61.84l34.181-.035c4.174-.004 7.554-3.391 7.55-7.565-.004-4.171-3.387-7.549-7.558-7.549-.002 0-.005 0-.008 0l-87.539.091c.853-1.956 1.541-4.087 1.986-6.439l2.121-9.304h113.39c.01 0 .02.002.03.002s.02-.002.03-.002h15.219c11.608 0 17.152-2.756 23.722-11.791l41.704-57.219c.039-.055.082-.108.12-.165l17.167-23.553h24.432l-73.258 95.734c-.091.119-.178.24-.262.363-8.293 12.283-16.563 12.283-19.676 12.283h-29.491c-4.174 0-7.558 3.383-7.558 7.557s3.384 7.557 7.558 7.557h29.491c12.817 0 23.607-6.306 32.073-18.747l68.331-89.295 5.728 11.93c-13.457 9.217-23.231 21.539-28.459 35.973-4.093 11.313-3.981 20.167.333 26.316 1.48 2.109 3.892 4.455 7.724 6-.476 3.515-.724 7.092-.724 10.701 0 43.559 35.47 78.997 79.069 78.997s79.069-35.438 79.069-78.997c0-3.448-.236-6.906-.689-10.344 4.708-1.623 7.523-4.437 9.165-6.942 5.987-9.117 1.752-21.339-.342-26.161zm-112.029-146.444c3.871-2.678 8.452-4.126 13.183-4.126h26.508c1.032 0 1.903.868 1.903 1.894v42.745c0 1.026-.871 1.894-1.903 1.894h-26.508c-4.73 0-9.312-1.449-13.183-4.127zm-39.464-106.709c0 .703-.611 1.298-1.335 1.298h-.038c-.036 0-.072-.001-.108 0h-37.669c-.708 0-1.307-.595-1.307-1.298v-19.897c0-.508.271-1.048.508-1.345l37.252 6.934c1.519.278 2.697.993 2.697 1.422zm-338.615 267.701c-.123.001-.246.003-.369.01-1.786.096-2.346-.259-2.346-.26-.44-.435-1.574-3.941.901-13.128 5.793-21.444 31.908-37.174 62.598-38.685l-10.997 52.062h-49.714c-.025 0-.049.001-.073.001zm65.288 45.609c.671.12 1.35.208 2.033.27.616.162 1.26.257 1.927.257h.008l21.423-.022c-5.241 6.771-13.436 11.02-22.369 11.02-15.588 0-28.269-12.666-28.269-28.234 0-4.887 1.257-9.584 3.625-13.786h2.929l-.112.53c-.019.093-.037.185-.053.277-2.892 16.767 7.297 27.627 18.858 29.688zm42.833.487 21.79-.022c-7.59 27.154-32.691 46.709-61.601 46.709-35.264 0-63.954-28.658-63.954-63.883 0-4.668.508-9.284 1.497-13.786h21.315c-1.479 4.4-2.242 9.037-2.242 13.786 0 23.903 19.462 43.348 43.384 43.348 17.416 0 33.038-10.506 39.811-26.152zm-11.714-99.687-13.571 59.53c-.009.043-.021.086-.03.13l-3.482 15.275c-.023.103-.045.207-.064.312-1.56 8.477-7.852 9.688-11.319 9.073-1.978-.353-8.278-2.266-6.637-12.109l1.974-9.347c.026-.114.051-.228.073-.344l18.248-86.401h20.253l-5.364 23.531c-.03.117-.059.233-.081.35zm36.444 53.59c-.035 0-.069 0-.104 0h-33.054l9.35-41.014c11.484 6.87 20.073 16.619 25.087 28.586.016.037.031.074.047.111 1.587 3.622 2.952 9.024 3.27 12.38zm-20.312-56.352 4.815-21.119h70.97l-45.434 49.066c-7.171-11.746-17.474-21.233-30.351-27.947zm37.269 42.723 59.116-63.843h79.97l-8.595 11.793h-46.039c-4.174 0-7.558 3.383-7.558 7.557s3.384 7.557 7.558 7.557h35.023l-19.437 26.668c-5.383-5.604-12.925-8.971-21.125-8.971-8.018 0-15.515 3.144-21.094 8.837-4.999 5.072-7.996 11.768-8.439 18.851-.113 1.79-.046 3.567.158 5.321h-46.779c-.172-4.984-1.559-10.157-2.759-13.77zm75.077 13.771h-10.225c-.345-1.415-.481-2.887-.387-4.375.215-3.448 1.678-6.711 4.134-9.203 2.728-2.783 6.39-4.317 10.313-4.317 5.027 0 9.415 2.454 11.936 6.465l-4.269 5.857c-3.594 4.943-4.467 5.573-11.502 5.573zm108.588-92.728h-120.293v-44.64c14.457-20.767 61.311-26.848 93.437-18.048 8.075 2.212 26.857 8.775 26.857 21.91v40.778zm7.999-105.968-37.389-2.186c-5.591-.327-7.459-4.136-7.359-7.297.058-1.837.863-6.098 7.089-6.098h.06l49.77.171c3.469.016 6.607 2.078 7.993 5.256.105.24.222.476.351.703.65 1.147.979 2.568.979 4.223v39.168 45.527 38.232c0 1.107.243 2.201.712 3.202l10.826 23.138c.094.229.198.451.312.667l34.747 74.259c2.004 4.279 1.263 7.172-2.265 8.846-2.452 1.162-6.754 1.48-8.199-1.527l-50.51-105.198v-7.561-48.335-57.645c-.001-4.003-3.122-7.312-7.117-7.545zm83.793 218.464h4.423c.964 2.874 1.463 5.881 1.463 8.99 0 15.568-12.669 28.234-28.241 28.234-15.587 0-28.269-12.666-28.269-28.234 0-3.093.506-6.101 1.484-8.99h2.451l6.897 14.365c3.636 7.566 10.813 10.937 18.065 10.937 3.528 0 7.073-.798 10.237-2.298 7.724-3.664 13.82-12.103 11.49-23.004zm-96.05-16.392c-.738-1.052-1.252-4.867 1.506-12.489 3.885-10.729 11.042-20.04 20.886-27.288l19.712 41.055h-37.022c-2.582 0-4.529-.49-5.082-1.278zm73.695 89.266c-35.264 0-63.953-28.658-63.953-63.883 0-3.04.214-6.046.628-8.99h20.896c-.622 2.934-.955 5.933-.955 8.99 0 23.903 19.462 43.348 43.384 43.348 23.907 0 43.356-19.446 43.356-43.348 0-3.064-.328-6.063-.944-8.99h20.88c.422 2.989.662 5.994.662 8.99 0 35.225-28.69 63.883-63.954 63.883zm74.907-89.459c-.604.921-2.596 1.471-5.328 1.471h-53.547l-26.351-56.317c31.495-3.447 68.501 7.997 83.649 42.988 2.421 5.573 2.619 10.268 1.577 11.858z"/></svg>